<svg width="13" height="7" viewBox="0 0 13 7" fill="none" xmlns="http://www.w3.org/2000/svg">
<path fill-rule="evenodd" clip-rule="evenodd" d="M12.4911 0.183183C12.259 -0.0488993 11.8827 -0.0488996 11.6506 0.183182L6.5 5.33383L1.34935 0.183183C1.11727 -0.0488993 0.74099 -0.0488993 0.508908 0.183183C0.276826 0.415265 0.276825 0.791544 0.508907 1.02363L5.70898 6.2237C5.64744 6.42677 5.69693 6.65629 5.85746 6.81682C6.03117 6.99053 6.28566 7.03422 6.5 6.94789C6.71434 7.03422 6.96883 6.99053 7.14254 6.81682C7.30307 6.65629 7.35256 6.42677 7.29102 6.2237L12.4911 1.02363C12.7232 0.791544 12.7232 0.415265 12.4911 0.183183Z" fill="black"/>
</svg>
